# xmcd
#
# Track frame offsets:
#	150
#	19328
#	30269
#	49003
#	60729
#	82027
#	106352
#	126769
#	141880
#	155208
#	169450
#	185559
#	198045
#	225978
#
# Disc length: 3294 seconds
#
# Revision: 0
# Processed by: cddbd v1.5.2PL0 Copyright (c) Steve Scherf et al.
# Submitted via: EasyCDDAExtractor 2010.6.0.0
#
DISCID=bb0cdc0e
DTITLE=Theuns Jordaan - Vreemde Stad
DYEAR=1900
DGENRE=
TTITLE0=Klein Verbond
TTITLE1=Onthou Jy Nog
TTITLE2=Skipskop
TTITLE3=Makiesakie
TTITLE4=Beautiful in Beaufort-Wes
TTITLE5=Sonvanger
TTITLE6=Visserman
TTITLE7=Skielik Is Jy Vry
TTITLE8=Vreemde Stad
TTITLE9=Lalie
TTITLE10=Hakieshart
TTITLE11=Sien Jou Weer
TTITLE12=Loslappie Mengelmoes
TTITLE13=Liedjieboer Mengelmoes
EXTD=
EXTT0=
EXTT1=
EXTT2=
EXTT3=
EXTT4=
EXTT5=
EXTT6=
EXTT7=
EXTT8=
EXTT9=
EXTT10=
EXTT11=
EXTT12=
EXTT13=
PLAYORDER=
